<svg width="64" height="64" viewBox="0 0 533 530" xmlns="http://www.w3.org/2000/svg">
  <defs>
    <linearGradient id="favicon-shell" x1="0%" y1="0%" x2="100%" y2="100%">
      <stop offset="0%" stop-color="#090112" />
      <stop offset="100%" stop-color="#1B0527" />
    </linearGradient>
    <linearGradient id="favicon-core" x1="0%" y1="0%" x2="100%" y2="100%">
      <stop offset="0%" stop-color="#431560" />
      <stop offset="100%" stop-color="#0E0518" />
    </linearGradient>
    <linearGradient id="favicon-arrow" x1="0%" y1="0%" x2="100%" y2="100%">
      <stop offset="0%" stop-color="#FFC5FF" />
      <stop offset="100%" stop-color="#C56BCE" />
    </linearGradient>
    <filter id="favicon-glow" x="-15%" y="-15%" width="130%" height="130%" color-interpolation-filters="sRGB">
      <feDropShadow dx="0" dy="10" stdDeviation="20" flood-color="#C56BCE" flood-opacity="0.45" />
    </filter>
  </defs>
  <rect width="533" height="530" rx="120" fill="url(#favicon-shell)" />
  <rect x="22" y="20" width="489" height="490" rx="110" fill="url(#favicon-core)" />
  <path
    d="M520.858 245.866C536.403 253.587 536.403 275.762 520.858 283.482L30.4678 527.04C11.1866 536.616 -8.30137 514.434 3.678 496.547L151.138 276.36C155.874 269.289 155.874 260.06 151.138 252.989L3.67798 32.802C-8.30139 14.9145 11.1865 -7.26763 30.4677 2.30859L520.858 245.866Z"
    fill="url(#favicon-arrow)"
    filter="url(#favicon-glow)"
  />
</svg>
