<svg width="40" height="40" viewBox="0 0 40 40" xmlns="http://www.w3.org/2000/svg">
  <defs>
    <linearGradient id="solanaGradient1" x1="0%" y1="0%" x2="100%" y2="0%">
      <stop offset="0%" stop-color="#9945FF"/>
      <stop offset="50%" stop-color="#8752F3"/>
      <stop offset="100%" stop-color="#14F195"/>
    </linearGradient>
    <linearGradient id="solanaGradient2" x1="0%" y1="0%" x2="100%" y2="0%">
      <stop offset="0%" stop-color="#14F195"/>
      <stop offset="50%" stop-color="#02A7F0"/>
      <stop offset="100%" stop-color="#9945FF"/>
    </linearGradient>
  </defs>
  <rect width="40" height="40" rx="20" fill="#111827"/>
  <path d="M11 26.5c.2-.3.5-.5.9-.5h17.2c.8 0 1.2.9.6 1.4l-3.4 2.9c-.2.2-.5.3-.7.3H8.4c-.8 0-1.2-.9-.6-1.4l3.2-2.7Z" fill="url(#solanaGradient1)"/>
  <path d="M11 18.9c.2-.3.5-.5.9-.5h17.2c.8 0 1.2.9.6 1.4l-3.4 2.9c-.2.2-.5.3-.7.3H8.4c-.8 0-1.2-.9-.6-1.4l3.2-2.7Z" fill="url(#solanaGradient2)"/>
  <path d="M11 11.3c.2-.3.5-.5.9-.5h17.2c.8 0 1.2.9.6 1.4l-3.4 2.9c-.2.2-.5.3-.7.3H8.4c-.8 0-1.2-.9-.6-1.4l3.2-2.7Z" fill="url(#solanaGradient1)"/>
</svg>
