<svg width="1968" height="919" viewBox="0 0 1968 919" fill="none" xmlns="http://www.w3.org/2000/svg">
<g>
<path d="M1735 83.1698L1963 83.1698L1635 835.812L1422.35 835.812L1735 83.1698Z" fill="#C56BCE"/>
</g>
<g>
<path d="M1751 843.17L1947 843.17L1633.28 73.7996L1433.28 73.7997L1751 843.17Z" fill="#C56BCE"/>
</g>
<g>
<rect x="1242" y="367.17" width="156" height="465" fill="#C56BCE"/>
</g>
<g>
<rect x="1242" y="63.1698" width="156" height="156" fill="#C56BCE"/>
</g>
<g>
<path d="M760 63.1698H916V836.17H760V63.1698Z" fill="#C56BCE"/>
<path d="M760 523.17V367.17H1091V523.17H760Z" fill="#C56BCE"/>
<path d="M760 219.17V63.1698H1203V219.17H760Z" fill="#C56BCE"/>
</g>
<g>
<path d="M4 63.1698H160V836.17H4V63.1698Z" fill="#C56BCE"/>
<path d="M63 63.1698H645V195.17H63V63.1698Z" fill="#C56BCE"/>
<path d="M646.583 69.6306L644.999 523.271L513 522.81L514.584 69.1698L646.583 69.6306Z" fill="#C56BCE"/>
<path d="M63 391.17H645V523.17H63V391.17Z" fill="#C56BCE"/>
</g>
<g>
<path d="M192 547.17H280V836.17H192V547.17Z" fill="#C56BCE"/>
<path d="M393 547.17H481V836.17H393V547.17Z" fill="#C56BCE"/>
<path d="M192 635.17V547.17H481V635.17H192Z" fill="#C56BCE"/>
<path d="M192 763.17V675.17H481V763.17H192Z" fill="#C56BCE"/>
</g>
<g>
<path d="M955 547.17H1043V836.17H955V547.17Z" fill="#C56BCE"/>
<path d="M982 836.17V748.17H1203V836.17H982Z" fill="#C56BCE"/>
</g>
<g>
<path d="M506 547.17H594V675.17H506V547.17Z" fill="#C56BCE"/>
<path d="M633 547.17H721V675.17H633V547.17Z" fill="#C56BCE"/>
<path d="M569 691.17H657V836.17H569V691.17Z" fill="#C56BCE"/>
<path d="M506 763.17V675.17H721V763.17H506Z" fill="#C56BCE"/>
</g>
</svg>
