<svg width="40" height="40" viewBox="0 0 40 40" xmlns="http://www.w3.org/2000/svg">
  <defs>
    <linearGradient id="usdcGradient" x1="0%" y1="0%" x2="0%" y2="100%">
      <stop offset="0%" stop-color="#3B82F6"/>
      <stop offset="100%" stop-color="#2563EB"/>
    </linearGradient>
  </defs>
  <circle cx="20" cy="20" r="20" fill="url(#usdcGradient)"/>
  <path d="M25.6 13.2c-2.1-2-5.6-2.1-7.7-.1-1 .9-1.5 2.1-1.5 3.4 0 2.5 1.6 3.6 4.3 4.1 2.4.4 3 .9 3 1.9 0 .5-.2.9-.5 1.2-1 .9-2.8.9-3.8 0-.4-.3-.6-.8-.6-1.3h-2.3c0 1.3.5 2.5 1.5 3.3 2.1 2 5.7 2 7.8 0 1-.9 1.6-2.1 1.6-3.5 0-2.6-1.7-3.7-4.4-4.2-2.3-.4-2.9-.9-2.9-1.9 0-.5.2-.9.5-1.1 1-.9 2.7-.9 3.7 0 .3.3.5.7.5 1.1h2.3c-.1-1.3-.6-2.4-1.5-3.2Z" fill="#fff"/>
  <path d="M16 12.4c-3 2.5-3.3 6.9-.8 9.8.2.3.5.6.8.8v3c-.6-.3-1.2-.6-1.7-1-3.9-3.2-4.4-9-.9-12.8.5-.5 1.1-1 1.7-1.4v1.6Z" fill="#BFDBFE"/>
  <path d="M24 27.6c3-2.5 3.3-6.9.8-9.8-.2-.3-.5-.6-.8-.8v-3c.6.3 1.2.6 1.7 1 3.9 3.2 4.4 9 .9 12.8-.5.5-1.1 1-1.7 1.4v-1.6Z" fill="#BFDBFE"/>
</svg>
